<?xml version="1.0" encoding="UTF-8" standalone="no"?>
<!-- Created with Inkscape (http://www.inkscape.org/) -->

<svg
   version="1.1"
   id="svg59"
   xml:space="preserve"
   width="1056"
   height="816"
   viewBox="0 0 1056 816"
   sodipodi:docname="winstons_tuesday_logo.svg"
   inkscape:version="1.1.2 (b8e25be8, 2022-02-05)"
   xmlns:inkscape="http://www.inkscape.org/namespaces/inkscape"
   xmlns:sodipodi="http://sodipodi.sourceforge.net/DTD/sodipodi-0.dtd"
   xmlns="http://www.w3.org/2000/svg"
   xmlns:svg="http://www.w3.org/2000/svg"><defs
     id="defs63"><clipPath
       clipPathUnits="userSpaceOnUse"
       id="clipPath81"><path
         d="M 0,612 H 792 V 0 H 0 Z"
         id="path79" /></clipPath><clipPath
       clipPathUnits="userSpaceOnUse"
       id="clipPath97"><path
         d="M 0,612 H 792 V 0 H 0 Z"
         id="path95" /></clipPath><clipPath
       clipPathUnits="userSpaceOnUse"
       id="clipPath105"><path
         d="M 218.666,474.715 H 348.283 V 368.023 H 218.666 Z"
         id="path103" /></clipPath></defs><sodipodi:namedview
     id="namedview61"
     pagecolor="#ffffff"
     bordercolor="#666666"
     borderopacity="1.0"
     inkscape:pageshadow="2"
     inkscape:pageopacity="0.0"
     inkscape:pagecheckerboard="0"
     showgrid="false"
     inkscape:zoom="0.91053922"
     inkscape:cx="415.68775"
     inkscape:cy="533.20054"
     inkscape:window-width="1356"
     inkscape:window-height="969"
     inkscape:window-x="0"
     inkscape:window-y="25"
     inkscape:window-maximized="0"
     inkscape:current-layer="g65" /><g
     id="g65"
     inkscape:groupmode="layer"
     inkscape:label="LogoProposition2"
     transform="matrix(1.3333333,0,0,-1.3333333,0,816)"><text
       transform="matrix(1,0,0,-1,230.5425,315.9766)"
       style="font-variant:normal;font-weight:normal;font-stretch:normal;font-size:72px;font-family:Bebas;-inkscape-font-specification:Bebas;writing-mode:lr-tb;fill:#231f20;fill-opacity:1;fill-rule:nonzero;stroke:none"
       id="text69"><tspan
         sodipodi:role="line"
         id="tspan67"
         x="0"
         y="0" /></text><text
       transform="matrix(1,0,0,-1,229.2686,229.5332)"
       style="font-variant:normal;font-weight:normal;font-stretch:normal;font-size:87px;font-family:Bebas;-inkscape-font-specification:Bebas;writing-mode:lr-tb;fill:#231f20;fill-opacity:1;fill-rule:nonzero;stroke:none"
       id="text73"><tspan
         sodipodi:role="line"
         id="tspan71"
         x="0"
         y="0" /></text><text
       transform="matrix(1,0,0,-1,233.6206,209.5859)"
       style="font-variant:normal;font-weight:normal;font-stretch:normal;font-size:16px;font-family:'Century Gothic';-inkscape-font-specification:CenturyGothic;writing-mode:lr-tb;fill:#231f20;fill-opacity:1;fill-rule:nonzero;stroke:none"
       id="text89"><tspan
         sodipodi:role="line"
         id="tspan87"
         x="0"
         y="0" /></text><g
       id="g91"
       transform="matrix(6.0584306,0,0,5.1998362,-1320.2669,-1874.2905)"><g
         id="g93"
         clip-path="url(#clipPath97)"><g
           id="g99"><g
             id="g101" /><g
             id="g157"><g
               clip-path="url(#clipPath105)"
               id="g155"><g
                 transform="translate(341.8818,409.2656)"
                 id="g109"><path
                   d="M 0,0 C 0.07,1.91 -0.55,3.74 -1.37,4.46 -2.36,5.31 -3.8,6.1 -6.51,5.79 -4.1,2.46 -2.97,-1.52 -3.1,-4.49 -2.46,-5.27 -2.06,-6.42 -1.94,-7.85 -1.12,-6.44 -0.15,-3.84 0,0 m 3.65,-29.16 c 0.55,1.35 -1.03,8.34 -7.7,7.4 0.12,-0.79 0.16,-1.63 0.11,-2.45 -0.08,-1.29 -0.47,-2.53 -1.03,-3.67 l 0.18,-1.71 c 0.17,-1.06 1.71,-1.6 2.93,-1.13 0.47,-1.33 1.97,-1.57 2.56,-1.53 1.55,0.1 1.46,3.04 1.46,3.04 0.59,-0.14 1.45,-0.05 1.49,0.05 m 2.32,3.07 c 0.37,-1.7 1.05,-4.46 -0.82,-5.15 -1.15,-0.42 -0.75,0.12 -1.7,0.15 0.96,-1.63 -0.55,-2.8 -2.69,-3.03 -2.13,-0.23 -2.82,0.79 -3.42,1.55 -1.32,0.22 -3.37,-0.24 -4.12,1.92 -0.85,-1.03 -1.76,-1.85 -2.5,-2.4 -1.81,-1.32 -4.39,-1.65 -4.85,-1.7 0.13,0.28 0.25,0.57 0.36,0.89 0.65,1.84 -0.34,3.77 -1.55,5.26 0.02,0.1 0.05,0.21 0.07,0.32 0.25,1.14 -0.84,4 -1.56,4.68 -0.26,0.25 -1.24,-0.31 -2.42,-1.76 -0.66,0.29 -1.58,0.64 -2.67,0.94 3.21,1.34 4.41,4.72 5.76,3.46 1.78,-1.67 3.77,-6.2 3.4,-7.87 0,-0.01 -0.49,-2.89 0.12,-3.52 1.27,0.85 3.37,1.74 4.5,3.19 1.3,1.67 1.53,3.92 1.6,4.93 0.22,2.86 -0.86,4.98 -1.23,5.27 l -1.36,0.95 1.26,1.07 c 2.44,2.08 3.46,5.82 3.38,8.41 -0.05,1.6 -0.48,2.33 -0.73,2.52 l -0.58,0.44 0.08,0.73 c 0.31,2.83 -0.8,7.52 -5.04,10.93 -4.07,3.27 -10.13,4.64 -16.87,2.37 l -0.49,0.02 -0.67,0.16 c -2.98,2.17 -5.83,2.48 -8.28,0.09 -1.25,-1.22 -2.93,-5.48 -3.3,-8.94 -0.37,-3.35 -0.33,-6.75 0.74,-8.38 1.21,-0.58 3.78,0.04 5.33,0.81 3.32,1.65 6.32,5.09 6.95,7.18 0.14,0.48 -0.04,1.11 -0.32,1.48 -0.37,0.49 -2.28,1.32 -2.72,1.32 0,0 3.63,1.05 4.89,-0.6 0.53,-0.68 0.89,-1.04 0.32,-2.94 -1.19,-3.99 -9.52,-8.99 -12.95,-9.66 -1.26,-0.24 -2.17,-0.02 -2.71,0.66 -1.24,1.54 -1.31,6.51 -1.18,8.93 0.35,6.62 2.59,10.27 3.52,11.38 0.61,0.73 3.18,2.24 6.12,2.34 -2.02,3.15 -3.99,4.29 -6.04,4.82 -2.69,0.68 -5.51,-0.92 -9.13,-3.33 -0.99,0.26 -2.01,0.57 -3.04,0.92 3.52,2.36 8.77,5.93 12.8,4.9 2.91,-0.75 5.48,-3.19 8.02,-7.63 0.65,-0.2 1.31,-0.48 1.94,-0.89 9.26,2.93 15.07,0.46 18.33,-2.17 0.71,-0.56 1.34,-1.19 1.93,-1.85 2.57,0.48 5.33,1.06 7.56,-0.87 1.44,-1.24 2.27,-3.06 2.17,-5.76 -0.21,-5.26 -2.27,-9.14 -4.16,-10.61 -0.27,-2.64 -1.3,-5.65 -3.29,-7.84 0.24,-0.4 0.46,-0.86 0.64,-1.36 6.66,0.68 10.25,-5.14 10.6,-6.73"
                   style="fill:#231f20;fill-opacity:1;fill-rule:nonzero;stroke:none"
                   id="path107" /></g><g
                 transform="translate(337.832,387.5059)"
                 id="g113"><path
                   d="M 0,0 C 6.67,0.94 8.25,-6.05 7.7,-7.4 7.66,-7.5 6.8,-7.59 6.21,-7.45 c 0,0 0.09,-2.94 -1.46,-3.04 -0.59,-0.04 -2.09,0.2 -2.56,1.53 -1.22,-0.47 -2.76,0.07 -2.93,1.13 l -0.18,1.71 c 0.56,1.14 0.95,2.38 1.03,3.67 C 0.16,-1.63 0.12,-0.79 0,0"
                   style="fill:#ffffff;fill-opacity:1;fill-rule:nonzero;stroke:none"
                   id="path111" /></g><g
                 transform="translate(340.5122,413.7261)"
                 id="g117"><path
                   d="m 0,0 c 0.82,-0.72 1.44,-2.55 1.37,-4.46 -0.15,-3.84 -1.12,-6.44 -1.94,-7.85 -0.12,1.43 -0.52,2.58 -1.16,3.36 0.13,2.97 -1,6.95 -3.41,10.28 C -2.43,1.64 -0.99,0.85 0,0"
                   style="fill:#ffffff;fill-opacity:1;fill-rule:nonzero;stroke:none"
                   id="path115" /></g><g
                 transform="translate(290.0322,408.0757)"
                 id="g121"><path
                   d="m 0,0 c 4.91,-7.63 2.32,-13.3 2.27,-13.39 0,0 -1.71,-3.7 -4.89,-4.65 2.25,0.07 6.01,-0.35 6.01,-0.35 5.81,-0.64 18,-5.82 18.15,-5.87 l 0.67,-0.22 0.54,0.44 c 2.29,0.36 6.48,-0.32 8.92,-1.51 0.37,-0.18 0.7,-0.38 0.98,-0.58 2.95,-2.68 3.67,-3.87 3.34,-5.88 -0.4,-2.52 -3.79,-4.06 -3.82,-4.07 0,0 0.35,-1.34 -1.19,-1.45 -1.55,-0.1 -1.7,1.29 -1.7,1.29 -0.33,-0.23 -3.26,-0.18 -4.64,0.31 -1.71,1 -1.44,4.26 -1.2,5.35 0,0 -1.17,0.96 -3.39,1.8 -2.23,0.84 -15.06,3.49 -22.39,4.19 -4.61,0.44 -8.96,0.85 -10.14,1.54 -1.43,0.83 -3.29,5.25 -3.8,12.23 -0.37,5.08 0.12,12.14 1.27,17.08 -0.29,-0.32 -4.95,-5.8 -4.62,-14.57 0.14,-3.55 0.78,-6.95 1.68,-9.79 -4.19,-0.54 -7.26,0.36 -9.7,1.19 -5.27,1.77 -7.35,5.6 -9.52,10.77 -0.32,0.76 -1.06,1.49 -1.69,2.23 2.66,3.08 3.73,6.96 3.08,11.23 -0.98,6.51 -6.85,14.38 -15.54,15.99 l 1.32,-0.9 c 6.44,-3.93 10.81,-9.71 11.68,-15.47 0.53,-3.52 -0.33,-6.69 -2.49,-9.18 -5.05,-4.67 -14.89,-6.87 -14.89,-6.87 0.82,-0.5 1.34,-0.64 2.82,-0.65 1.03,0.03 2.03,0.17 3,0.37 5.75,-7.63 16.34,-11.8 19.26,-12.83 l 0.45,-2.61 0.26,-0.28 c 3.91,-4.19 3.97,-6.27 3.66,-7.14 -0.53,-1.49 -2.93,-1.84 -2.95,-1.85 l -0.75,-0.1 -0.29,-0.7 c -0.31,-0.81 -0.74,-0.95 -1.04,-0.98 -0.94,-0.13 -2.3,0.7 -3.16,1.91 l -0.91,1.27 -1.07,-1.14 c -0.25,-0.26 -0.49,-0.42 -0.6,-0.4 -0.63,0.16 -1.62,2.05 -2.06,3.57 l -0.02,0.06 c -2.54,7.5 -15.46,14.88 -23.18,19.3 -1.93,1.1 -3.93,2.25 -4.53,2.73 -0.03,1 0.47,5.46 1.73,8.75 0.65,1.68 1.48,3.05 2.55,3.51 3.16,1.39 7.36,2.12 5.27,2.01 -2.08,-0.1 -5.48,-0.63 -5.48,-0.63 -6.63,7.46 -6.94,20.36 -4.17,24.65 0.63,3.26 -0.92,4.23 -0.08,8.3 0.52,2.48 1.69,5.81 4.35,7.52 l 0.89,0.57 -5.51,13.67 c -0.84,2.14 0,2.93 0.27,3.19 1.28,1.21 3.92,1.23 4.62,0.96 1.07,-0.86 4.75,-7.74 7.59,-13.7 l 0.48,-1.01 1.06,0.34 c 5.88,1.83 12.51,0.85 17.7,-3.5 3.44,-2.89 4.71,-7.98 5.08,-10.06 1.55,-4.88 4.89,-8.84 14.19,-13.91 3.29,-1.8 6.2,-3.11 8.87,-4.2 4.12,-1.68 7.67,-2.89 11.89,-3.52 l 3.66,-0.18 c -1.22,0.18 -2.5,0.45 -3.83,0.81 3.62,2.41 6.44,4.01 9.13,3.33 2.05,-0.53 4.02,-1.67 6.04,-4.82 C 16.55,13.4 13.98,11.89 13.37,11.16 12.44,10.05 10.2,6.4 9.85,-0.22 9.72,-2.64 9.79,-7.61 11.03,-9.15 c 0.54,-0.68 1.45,-0.9 2.71,-0.66 3.43,0.67 11.76,5.67 12.95,9.66 0.57,1.9 0.21,2.26 -0.32,2.94 -1.26,1.65 -4.89,0.6 -4.89,0.6 0.44,0 2.35,-0.83 2.72,-1.32 0.28,-0.37 0.46,-1 0.32,-1.48 -0.63,-2.09 -3.63,-5.53 -6.95,-7.18 -1.55,-0.77 -4.12,-1.39 -5.33,-0.81 -1.07,1.63 -1.11,5.03 -0.74,8.38 0.37,3.46 2.05,7.72 3.3,8.94 2.45,2.39 5.3,2.08 8.28,-0.09 l 0.67,-0.16 0.49,-0.02 c 6.74,2.27 12.8,0.9 16.87,-2.37 4.24,-3.41 5.35,-8.1 5.04,-10.93 l -0.08,-0.73 0.58,-0.44 c 0.25,-0.19 0.68,-0.92 0.73,-2.52 0.08,-2.59 -0.94,-6.33 -3.38,-8.41 l -1.26,-1.07 1.36,-0.95 c 0.37,-0.29 1.45,-2.41 1.23,-5.27 -0.07,-1.01 -0.3,-3.26 -1.6,-4.93 -1.13,-1.45 -3.23,-2.34 -4.5,-3.19 -0.61,0.63 -0.12,3.51 -0.12,3.52 0.37,1.67 -1.62,6.2 -3.4,7.87 -1.35,1.26 -2.55,-2.12 -5.76,-3.46 -2.2,0.6 -5.09,0.96 -7.89,0.08 -0.74,0.25 -1.85,0.85 -3.27,1.61 1.29,8.68 9.12,9.82 9.12,9.82 -6.6,1.43 -10.3,-5.56 -11.4,-8.63 -3.55,1.77 -8.31,3.75 -13.79,4.06 C 9.27,-9.47 0.42,-0.42 0,0"
                   style="fill:#ffffff;fill-opacity:1;fill-rule:nonzero;stroke:none"
                   id="path119" /></g><g
                 transform="translate(326.562,380.666)"
                 id="g125"><path
                   d="M 0,0 C 1.21,-1.49 2.2,-3.42 1.55,-5.26 1.44,-5.58 1.32,-5.87 1.19,-6.15 1.14,-6.16 1.12,-6.16 1.12,-6.16 c 0,0 -0.42,3.37 -0.81,3.73 C -0.32,-1.83 -0.22,-1.02 0,0"
                   style="fill:#231f20;fill-opacity:1;fill-rule:nonzero;stroke:none"
                   id="path123" /></g><g
                 transform="translate(258.8921,388.7959)"
                 id="g129"><path
                   d="m 0,0 c -4.25,2.36 -5.98,6.78 -7.68,11.91 -0.24,0.74 -0.86,1.57 -1.4,2.36 -1.38,-0.98 -3.89,-2.56 -6.97,-3.63 C -11.37,5.01 -3.66,1.46 0,0 m 68.79,-14.29 c 0,0 0.02,0 0.07,0.01 -1.07,-2.29 -2.68,-3.39 -3.75,-3.98 -0.34,-1.16 -1.39,-2.2 -2.28,-2.37 -0.11,-0.02 -2.01,-0.71 -2.66,1.14 -1.76,-0.71 -4.4,0.11 -5.36,0.46 l -0.16,0.07 c -2.89,1.53 -1.81,5.3 -1.63,7.17 -7.15,2.47 -17.59,3.27 -24.47,3.92 -6.07,0.58 -9.59,0.95 -11.18,1.88 -1.1,0.64 -2.27,2.34 -3.27,4.7 -1.7,-0.3 -3.27,-0.47 -4.71,-0.51 -2.61,-0.09 -4.77,0.16 -6.58,0.66 l 0.56,-3.22 c 3.55,-3.89 4.84,-7 3.93,-9.5 -0.81,-2.23 -3.13,-3.07 -4.32,-3.36 -0.63,-1.11 -1.6,-1.78 -2.8,-1.93 -0.12,-0.02 -0.24,-0.03 -0.36,-0.03 -1.46,-0.05 -3.08,0.7 -4.35,1.98 -0.76,-0.39 -1.45,-0.38 -1.96,-0.25 -2.41,0.58 -3.66,4.46 -3.91,5.33 -2.26,6.56 -15.11,13.91 -22.01,17.86 -3.99,2.28 -5.15,2.97 -5.56,3.72 -0.56,1.03 1.47,7 2.88,10.33 l 1.15,-0.34 c -1.26,-3.29 -1.76,-7.75 -1.73,-8.75 0.6,-0.48 2.6,-1.63 4.53,-2.73 7.72,-4.42 20.64,-11.8 23.18,-19.3 l 0.02,-0.06 c 0.44,-1.52 1.43,-3.41 2.06,-3.57 0.11,-0.02 0.35,0.14 0.6,0.4 l 1.07,1.14 0.91,-1.27 c 0.86,-1.21 2.22,-2.04 3.16,-1.91 0.3,0.03 0.73,0.17 1.04,0.98 l 0.29,0.7 0.75,0.1 c 0.02,0.01 2.42,0.36 2.95,1.85 0.31,0.87 0.25,2.95 -3.66,7.14 l -0.26,0.28 -0.45,2.61 c -2.92,1.03 -13.51,5.2 -19.26,12.83 -0.97,-0.2 -1.97,-0.34 -3,-0.37 -1.48,0.01 -2,0.15 -2.82,0.65 0,0 9.84,2.2 14.89,6.87 2.16,2.49 3.02,5.66 2.49,9.18 -0.87,5.76 -5.24,11.54 -11.68,15.47 l -1.32,0.9 c 8.69,-1.61 14.56,-9.48 15.54,-15.99 0.65,-4.27 -0.42,-8.15 -3.08,-11.23 0.63,-0.74 1.37,-1.47 1.69,-2.23 2.17,-5.17 4.25,-9 9.52,-10.77 2.44,-0.83 5.51,-1.73 9.7,-1.19 -0.9,2.84 -1.54,6.24 -1.68,9.79 -0.33,8.77 4.33,14.25 4.62,14.57 -1.15,-4.94 -1.64,-12 -1.27,-17.08 0.51,-6.98 2.37,-11.4 3.8,-12.23 1.18,-0.69 5.53,-1.1 10.14,-1.54 7.33,-0.7 20.16,-3.35 22.39,-4.19 2.22,-0.84 3.39,-1.8 3.39,-1.8 -0.24,-1.09 -0.51,-4.35 1.2,-5.35 1.38,-0.49 4.31,-0.54 4.64,-0.31 0,0 0.15,-1.39 1.7,-1.29 1.54,0.11 1.19,1.45 1.19,1.45 0.03,0.01 3.42,1.55 3.82,4.07 0.33,2.01 -0.39,3.2 -3.34,5.88 -0.28,0.2 -0.61,0.4 -0.98,0.58 l 0.15,0.31 c 0.27,0.4 0.54,0.76 0.8,1.07 0.7,-0.3 1.11,-0.53 1.11,-0.53 0,0 1.52,-1.11 2.8,-2.71 -0.22,-1.02 -0.32,-1.83 0.31,-2.43 0.39,-0.36 0.81,-3.73 0.81,-3.73"
                   style="fill:#231f20;fill-opacity:1;fill-rule:nonzero;stroke:none"
                   id="path127" /></g><g
                 transform="translate(322.6519,383.9058)"
                 id="g133"><path
                   d="m 0,0 c -0.26,-0.31 -0.53,-0.67 -0.8,-1.07 l -2.63,1.73 c 0.27,0.08 0.52,0.17 0.76,0.28 C -1.58,0.64 -0.66,0.29 0,0"
                   style="fill:#231f20;fill-opacity:1;fill-rule:nonzero;stroke:none"
                   id="path131" /></g><g
                 transform="translate(321.8521,382.8359)"
                 id="g137"><path
                   d="M 0,0 -0.15,-0.31 C -2.59,0.88 -6.78,1.56 -9.07,1.2 l -0.54,-0.44 -0.67,0.22 c -0.15,0.05 -12.34,5.23 -18.15,5.87 0,0 -3.76,0.42 -6.01,0.35 3.18,0.95 4.89,4.65 4.89,4.65 0.05,0.09 2.64,5.76 -2.27,13.39 0.42,-0.42 9.27,-9.47 2.72,-16.29 5.48,-0.31 10.24,-2.29 13.79,-4.06 -0.08,-0.24 -0.16,-0.45 -0.21,-0.64 l -0.12,-0.38 2.46,-0.74 0.12,0.39 c 0.01,0.06 0.02,0.12 0.03,0.18 1.42,-0.76 2.53,-1.36 3.27,-1.61 2.8,0.88 5.69,0.52 7.89,-0.08 C -2.11,1.9 -2.36,1.81 -2.63,1.73 Z"
                   style="fill:#231f20;fill-opacity:1;fill-rule:nonzero;stroke:none"
                   id="path135" /></g><g
                 transform="translate(306.542,387.7261)"
                 id="g141"><path
                   d="m 0,0 c 1.1,3.07 4.8,10.06 11.4,8.63 0,0 -7.83,-1.14 -9.12,-9.82 C 1.59,-0.82 0.83,-0.42 0,0"
                   style="fill:#231f20;fill-opacity:1;fill-rule:nonzero;stroke:none"
                   id="path139" /></g><g
                 transform="translate(308.8223,386.5356)"
                 id="g145"><path
                   d="m 0,0 c -0.01,-0.06 -0.02,-0.12 -0.03,-0.18 l -0.12,-0.39 -2.46,0.74 0.12,0.38 c 0.05,0.19 0.13,0.4 0.21,0.64 C -1.45,0.77 -0.69,0.37 0,0"
                   style="fill:#231f20;fill-opacity:1;fill-rule:nonzero;stroke:none"
                   id="path143" /></g><g
                 transform="translate(298.1821,422.2559)"
                 id="g149"><path
                   d="m 0,0 -3.66,0.18 c -4.22,0.63 -7.77,1.84 -11.89,3.52 -2.67,1.09 -5.58,2.4 -8.87,4.2 -9.3,5.07 -12.64,9.03 -14.19,13.91 -0.37,2.08 -1.64,7.17 -5.08,10.06 -5.19,4.35 -11.82,5.33 -17.7,3.5 l -1.06,-0.34 -0.48,1.01 c -2.84,5.96 -6.52,12.84 -7.59,13.7 -0.7,0.27 -3.34,0.25 -4.62,-0.96 -0.27,-0.26 -1.11,-1.05 -0.27,-3.19 l 5.51,-13.67 -0.89,-0.57 c -2.66,-1.71 -3.83,-5.04 -4.35,-7.52 -0.84,-4.07 0.71,-5.04 0.08,-8.3 -2.77,-4.29 -2.46,-17.19 4.17,-24.65 0,0 3.4,0.53 5.48,0.63 2.09,0.11 -2.11,-0.62 -5.27,-2.01 -1.07,-0.46 -1.9,-1.83 -2.55,-3.51 l -1.15,0.34 c 0.56,1.34 1.02,2.26 1.18,2.26 -3.52,3.51 -6.69,11.47 -6.28,19.07 0.27,4.93 1.43,8.82 1.43,8.82 0,0 -0.55,4.11 -0.02,7.39 0.5,3.03 1.97,6.53 5.01,9.01 l -4.74,11.76 c -1.28,3.27 0.01,5.17 0.9,6.01 2.08,1.96 5.89,2.15 7.5,1.41 1.7,-0.79 5.36,-7.8 8.32,-13.94 16.24,2.19 22.72,-7.21 23.32,-11.04 0.37,-2.37 1.35,-4.41 1.61,-5.09 0.76,-2.42 3.05,-5.15 7.99,-8.95 C -22.52,8.7 -14.32,4.22 -6.87,1.73 -6.96,1.67 -7.04,1.61 -7.12,1.56 l 2.84,-1.05 c 0.15,0.1 0.3,0.2 0.45,0.3 C -2.5,0.45 -1.22,0.18 0,0"
                   style="fill:#231f20;fill-opacity:1;fill-rule:nonzero;stroke:none"
                   id="path147" /></g><g
                 transform="translate(294.3521,423.0659)"
                 id="g153"><path
                   d="M 0,0 C -0.15,-0.1 -0.3,-0.2 -0.45,-0.3 L -3.29,0.75 C -3.21,0.8 -3.13,0.86 -3.04,0.92 -2.01,0.57 -0.99,0.26 0,0"
                   style="fill:#231f20;fill-opacity:1;fill-rule:nonzero;stroke:none"
                   id="path151" /></g></g></g></g><g
           id="g159"
           transform="translate(324,388.002)"><path
             d="M 0,0 C -1.25,2 -2.25,4.75 -1.5,5.5 -0.75,6.25 4,7 5,3.75 6,0.5 1.25,0.25 0,0"
             style="fill:#231f20;fill-opacity:1;fill-rule:nonzero;stroke:none"
             id="path161" /></g><g
           id="g163"
           transform="translate(324,388.002)"><path
             d="M 0,0 C -1.25,2 -2.25,4.75 -1.5,5.5 -0.75,6.25 4,7 5,3.75 6,0.5 1.25,0.25 0,0 Z"
             style="fill:none;stroke:#231f20;stroke-width:1;stroke-linecap:butt;stroke-linejoin:miter;stroke-miterlimit:10;stroke-dasharray:none;stroke-opacity:1"
             id="path165" /></g></g></g></g></svg>
